# xmcd
#
# Track frame offsets:
#	150
#	20207
#	37893
#	56144
#	72502
#	97629
#	111980
#	125818
#	138761
#	161383
#
# Disc length: 2398 seconds
#
# Revision: 1
# Processed by: cddbd v1.5.2PL0 Copyright (c) Steve Scherf et al.
# Submitted via: audiograbber 1.83.01
#
DISCID=87095c0a
DTITLE=Bruce Springsteen - Nebraska
DYEAR=1900
DGENRE=
TTITLE0=Nebraska
TTITLE1=Atlantic City
TTITLE2=Mansion on the hill
TTITLE3=Johnny 99
TTITLE4=Highway patrolman
TTITLE5=State trooper
TTITLE6=Used cars
TTITLE7=Open all night
TTITLE8=My father's house
TTITLE9=Reason to believe
EXTD=
EXTT0=
EXTT1=
EXTT2=
EXTT3=
EXTT4=
EXTT5=
EXTT6=
EXTT7=
EXTT8=
EXTT9=
PLAYORDER=
